<svg version="1" xmlns="http://www.w3.org/2000/svg" width="5461.333" height="5461.333" viewBox="0 0 4096.000000 4096.000000"><path d="M1498.5 178.1c-167.8 8.4-332 46.6-484.5 112.7C744.5 407.6 517.9 607.5 367.7 861c-23.1 39-52.3 95.3-70.6 135.9-65.8 146.4-105.5 301.4-118.1 461.6-3.4 43.9-4.3 74.7-3.7 128 .6 49.2 1.1 61.2 4.2 99 17.6 212 83.3 416.2 193 599 107.9 180 255.4 333.6 430.7 448.8 197.8 130 422.5 206.5 658.8 224.2 65.9 4.9 141.7 4.9 209.5-.1 144.8-10.5 292.3-45.8 428-102.4 127.6-53.2 248.7-126.5 354.5-214.5 8.6-7.2 16.4-13.6 17.4-14.4 1.6-1.3 4.3 1.1 31.2 28l29.4 29.4v169.1l48.8 48.5c89.3 88.9 908.8 905.4 966 962.3l56.2 56.1 159-159c87.5-87.4 158.9-159.3 158.8-159.7-.2-.4-87.6-87.6-194.3-193.9-257.1-256.2-730.6-728-811.5-808.6l-64.5-64.3h-168l-29.8-29.8-29.7-29.7 9.7-11.5c238.6-283 353-643.2 321.7-1013.5-19.7-233.8-98.1-457.2-229.7-654.5-69.4-104-156-201.6-251.7-283.5-139.4-119.5-297.7-208.7-471.5-265.8-119.2-39.2-239.8-61.3-369.4-67.7-23.4-1.1-109.8-1.1-133.6.1zm128 434.9c92.9 6.1 182.6 24.5 266 54.7 169 61.1 315.1 165.9 427.1 306.3 109.4 137.2 179.7 303.7 201.3 477 8.6 69 9.9 142.1 3.5 211-17.2 187.4-88.6 364.2-206.9 512-40.3 50.3-94.4 104.9-144 145.1-147.2 119.3-323.4 191.9-511 210.4-30.9 3-42.3 3.6-80.5 4.2-62.1.9-114.5-2.8-172-12.3-349.8-57.5-641.4-305.5-754-641.4-28.8-85.8-44.1-166.3-49.1-257.9-1.5-27.9-.6-99 1.6-124.6 6.1-72.6 18.3-137.7 38.1-203.2 71.8-238 233.8-439.2 452.5-561.8 70.8-39.7 150-71.2 230.4-91.5 68.8-17.4 129.8-26.1 207-29.4 14-.6 73.4.3 90 1.4z"/><path d="M1517 1014.6c-2.5.2-10.1.8-17 1.4-107.5 9.2-213.1 53.9-297 125.6-24.9 21.3-57.4 55.8-77.3 82.1-41.5 55-73.1 120.1-89.7 184.8-2.3 8.8-4.4 16.3-4.8 16.6-.4.3-9.8 6.7-20.9 14.2-74.8 50.3-152.3 117.9-198.3 173.2-45.5 54.6-72.3 106.2-81.1 156.1-3.2 18.3-3.2 44.2-.1 60.2 6.5 32.6 20.1 58.1 43.7 81.8 18.3 18.5 37.1 31.5 64 44.4 70.9 34.1 175.2 48.9 294.5 41.9 174.6-10.2 379.1-60.3 585-143.4 223.1-90 407.4-203 528.6-324 13.8-13.7 30-30.8 36-37.9 49.3-57.9 77.3-110.7 86.5-163.1 2.9-16.7 3.2-44 .5-58.2-6.6-36.1-21.1-63-47.8-88.9-46.9-45.4-122-72.2-229.8-82-23.8-2.1-89.6-3-115.5-1.5-27.3 1.6-50.1 3.6-82 7.2-42.7 4.8-37.3 4.9-44.6-.4-31.2-22.1-83.4-47.3-129.7-62.6-38.5-12.8-76.2-20.9-119.2-25.6-13.6-1.5-72.6-2.9-84-1.9zm566.5 172.5c84 5.7 145.3 25.4 176.6 56.8 9.7 9.8 15.8 19.3 19.7 30.8 2.4 7.1 2.6 9.2 2.7 23.8 0 10-.5 18.1-1.3 21.5-3.2 13-7.8 25.5-15.2 40.5-45 92.2-176.2 204.7-353.5 303.2-160 89-358 165.1-538 206.9-196.3 45.6-369.3 51.5-471.5 16.2-14.5-5-33.1-14-43.5-20.9-16.1-10.8-30-26.5-35.8-40.4-4.1-10-5.2-16.2-5.2-29.5 0-20.5 4.6-37.3 17-62.5 26.9-54.8 86.2-118.7 168.7-181.8l12.6-9.7.6 10.8c2.8 54 7.3 84.7 18.8 129.7 14.5 56.9 43.4 121.7 76.1 170.4l4.9 7.3 10.1-.7c144.7-9.2 296.6-43.3 464.7-104 193.4-70 360.6-157.9 477-250.8 6.9-5.5 12.8-10.3 13.2-10.6 1.6-1.4-7.1-48-13.7-73.2-15.8-60.7-43.5-122.6-77.8-173.9-8.9-13.2-29.9-40.6-42.5-55.3-.8-.9-1.3-1.9-1.1-2.1.7-.7 30.3-2.8 51.4-3.6 22.8-.9 62.9-.4 85 1.1zM2025.7 1763c-95.9 56.9-218.4 115.2-334.6 159.2-132.2 50-254.9 85-366.6 104.6l-5 .9 8.6 4.1c33 15.6 84.1 31.9 124.4 39.6 54.5 10.4 111.9 12.3 166.7 5.5 90.4-11.1 179.8-47.4 253.8-102.8 27.4-20.5 60.6-51.6 82.4-77.1 34.8-40.6 65.8-91.2 86-140.3.8-2 1.4-3.7 1.3-3.7-.1 0-7.8 4.5-17 10z"/></svg>